Patient4_TMGait_0pt3_02_right_13_EMG.mot
version=1
nRows=16
nColumns=33
inDegrees=no
endheader
time	1LAddLong	2LGlutMax	3LGlutMed	4LIliopsoas	5LSemiMemb	6LBicFemLong	7LRecFem	8LVastMed	9LVastLat	10LGasMed	11LTibAnt	12lTibPost	13LPeroneusLong	14LSol	15LExtDigLong	16LFlexDigLong	17RAddLong	18RGlutMax	19RGlutMed	20RIliopsoas	21RSemiMemb	22RBicFemLong	23RRecFem	24RVastMed	25RVastLat	26RGasMed	27RTibAnt	28RTibPost	29RPeroneusLong	30RSol	31RExtDigLong	32RFlexDigLong
25.057	-0.002899	-0.29846	-0.012207	0.007629	-0.020599	0.12711	0.018921	-0.012665	0.025024	0.002136	-0.006256	0.34424	0.076447	-0.17578	-0.024261	-0.21286	-0.013733	0.17288	0.36392	0.17136	-0.098114	-0.12375	-0.11459	-0.061646	0.47669	-0.029755	0.057678	0.016174	-0.061493	0.023804	-0.001526	-0.007782
25.058	0.00061	-0.28183	-0.010986	0.001373	-0.022125	0.005798	0.00473	-0.014954	0.024261	0.000458	-0.003204	0.20767	0.030823	-0.2887	0.006409	-0.009155	0.000458	0.069427	0.15091	0.12802	-0.1001	-0.008087	-0.095367	-0.041351	-0.007477	-0.037537	0.066833	0.019684	-0.14358	0.12253	-0.006104	-0.020294
25.059	0.001221	-0.3122	-0.003967	0.011749	0.003815	-0.090332	0.016785	-0.01236	0.022125	-0.002594	0.011749	0.032806	0.042114	0.37949	0.005035	0.033264	0.049438	-0.030823	0.12741	0.040436	-0.024719	0.14725	-0.048981	-0.015106	-0.38147	-0.062561	0.10208	0.003052	-0.6604	0.10346	-0.004578	-0.011139
25.06	-0.000153	-0.3183	-0.001068	0.006104	0.022736	-0.14069	0.023804	-0.011597	0.0177	-0.010223	0.000305	-0.003662	-0.016632	0.15137	-0.003815	0.034943	0.042572	-0.059052	0.085144	-0.020142	-0.007172	0.067291	-0.012665	0.0383	-0.69702	-0.059052	0.068054	-0.006714	-0.50247	0.13992	-0.003967	-0.005798
25.061	-0.001526	-0.28595	0.003357	0.004425	0.025787	-0.094299	0.011902	-0.01709	0.024261	-0.010834	0.008087	-0.039978	-0.027313	-0.039673	-0.015564	0.014343	0.001526	-0.043488	0.067444	-0.13962	0.003357	0.014038	0.1651	0.022125	-0.8963	0.019684	0.015869	-0.00885	0.52994	0.06073	0	-0.00885
25.062	-0.001526	-0.2446	0.005951	-0.001068	0.035553	0.018005	0.041351	-0.011139	0.02655	-0.017395	0.004578	-0.031891	-0.06546	0.10559	-0.000458	0.017853	-0.023193	-0.041046	0.032043	-0.14542	0.026703	0.018005	0.30609	0.032196	-0.74677	0.024872	-0.010681	-0.007935	0.20447	-0.050964	-0.00061	-0.00885
25.063	-0.000305	-0.32227	0.006714	-0.005493	0.033569	0.072632	0.031586	-0.020142	0.011597	-0.014954	0.002289	-0.02594	-0.076141	0.21103	0.013885	0.042725	-0.029449	-0.042725	0.04715	-0.12512	-0.15823	0.24506	0.24399	0.094452	-0.25559	-0.010376	0.045776	-0.012512	0.33814	0.037537	-0.001831	-0.018616
25.064	0.003357	-0.3743	0.007324	-0.00061	0.00061	0.044098	0.040894	-0.00946	0.019989	0.000916	-0.001984	-0.022888	-0.08728	0.11124	0.024414	0.052338	0.001984	-0.061951	-0.06546	-0.029602	0.071564	0.38315	0.14145	0.055084	-0.032959	0.033722	0.059204	-0.008087	-0.070648	0.057068	0.000763	-0.009155
25.065	0.014191	-0.40787	0.019836	-0.00351	-0.010681	-0.023804	0.023499	-0.013275	0.020447	-0.005646	0.002747	-0.016937	-0.057373	0.26474	0.014954	0.037689	-0.003815	-0.088959	-0.063477	-0.019073	0.093994	0.2478	0.040131	0.034027	0.030212	0.0354	0.018616	-0.031281	-0.036316	-0.029602	-0.002136	-0.005798
25.066	0.076294	-0.44449	0.023651	-0.003967	-0.003662	-0.033112	0.010986	-0.014496	0.032654	0.005341	0.000305	-0.016785	-0.043182	0.25452	0.019836	0.0383	0.003815	-0.082245	-0.15869	0.026245	-0.074005	0.043945	0.076447	-0.06134	0.036163	-0.012054	0.000153	-0.011444	0.20752	-0.17212	-0.001068	-0.006409
25.067	-0.030823	-0.46448	0.025177	0.007324	0.016785	-0.02655	0.025177	-0.016937	0.02533	0.008392	0.003204	-0.006256	-0.033722	0.07309	0.017853	0.041809	-0.000916	-0.059814	-0.11047	0.027618	-0.018921	-0.20432	0.07019	-0.098419	0.028229	-0.12238	0.071564	0.02594	0.50095	-0.21866	0.000458	-0.007172
25.068	0.031281	-0.50262	0.044708	0.002747	0.024109	0.012817	0.036926	-0.010681	0.012512	0.011292	0.008392	-0.004425	0.002594	0.077667	0.020599	0.059662	-0.006256	-0.11108	-0.12543	0.099945	0.019226	-0.37811	0.041962	-0.094604	0.041351	-0.24155	0.13672	-0.027313	0.23163	-0.12543	-0.001678	-0.003052
25.069	0.003662	-0.51132	0.034332	0.005493	0.01358	0.056763	0.020599	-0.004425	0.013733	-0.021057	0.000763	-0.002594	0.070953	0.090179	0.017395	0.1207	-0.00885	-0.12665	-0.12405	0.12543	0.02182	-0.59921	0.053101	-0.083313	0.060577	-0.23666	0.080109	-0.051575	-0.37628	-0.07782	-0.003204	0.000153
25.07	0.003967	-0.54688	0.034332	0.015411	-0.005951	0.067749	0.028839	-0.009613	0.015717	-0.065613	0.00885	-0.019836	0.073547	0.11887	0.018158	0.1889	-0.006256	-0.17075	0.058594	0.073853	0.066681	-0.58746	-0.087738	0.082397	0.079803	-0.11444	0.052795	-0.10071	-1.0721	0.003357	-0.005341	0.000458
25.071	0.001526	-0.57342	0.039063	0.004578	-0.021667	0.069733	0.027771	-0.005646	0.028839	-0.059967	-0.000916	-0.00351	-0.098419	0.22476	0.029602	-0.12329	-0.007019	-0.18799	-0.012054	0.052795	-0.003967	-0.54062	-0.090637	0.16037	0.088196	0.067749	0.077667	0.082092	-1.3287	-0.071564	0.000153	-0.00824
25.072	-0.004883	-0.57754	0.03891	0.004425	-0.047913	0.045166	0.024414	-0.00885	0.020447	-0.052185	0.006256	-0.32333	-0.15732	0.3656	0.041046	-0.006104	-0.023651	-0.19699	0.10742	0.088348	0.059509	-0.44022	-0.03006	0.17517	0.090179	0.29053	-0.087433	0.14465	0.72571	-0.09201	0.001831	-0.005798
